<?xml version="1.0" standalone="no"?>
<!DOCTYPE svg PUBLIC "-//W3C//DTD SVG 20010904//EN"
 "http://www.w3.org/TR/2001/REC-SVG-20010904/DTD/svg10.dtd">
<svg version="1.0" xmlns="http://www.w3.org/2000/svg"
 width="2500.000000pt" height="2500.000000pt" viewBox="0 0 2500.000000 2500.000000"
 preserveAspectRatio="xMidYMid meet">

<g transform="translate(0.000000,2500.000000) scale(0.100000,-0.100000)"
fill="#000000" stroke="none">
<path d="M8913 15853 c-40 -14 -132 -73 -152 -97 -8 -9 -17 -16 -21 -16 -4 0
-28 -19 -53 -42 -49 -46 -106 -138 -127 -203 -7 -22 -19 -47 -26 -56 -18 -20
-40 -98 -64 -224 -26 -133 -25 -121 -16 -200 30 -279 118 -440 285 -524 89
-45 164 -57 264 -43 106 15 190 56 274 135 155 145 223 328 224 608 1 173 -28
292 -104 423 -50 86 -96 137 -164 183 -101 67 -225 88 -320 56z m384 -433 c47
-28 64 -69 60 -139 -5 -71 -33 -112 -89 -131 -32 -11 -41 -11 -62 4 -43 27
-60 64 -61 125 0 71 19 109 70 138 48 27 43 27 82 3z"/>
<path d="M13195 15810 c-130 -32 -222 -83 -323 -180 -93 -88 -170 -224 -199
-350 -29 -128 -37 -224 -26 -291 40 -226 70 -287 208 -426 63 -63 113 -105
131 -109 16 -4 40 -15 54 -25 55 -39 227 -79 342 -79 107 0 272 47 303 86 17
21 32 28 73 32 44 4 58 11 91 43 21 21 41 52 45 69 3 18 15 35 28 41 14 6 33
34 49 72 33 77 43 115 64 247 15 89 15 123 6 220 -12 125 -23 164 -77 272 -93
184 -200 278 -409 361 -41 17 -192 38 -255 36 -19 -1 -66 -9 -105 -19z m-130
-396 c12 -8 30 -26 42 -41 23 -33 39 -118 23 -128 -5 -3 -10 -14 -10 -24 0
-21 -38 -73 -48 -67 -4 2 -28 0 -54 -4 -54 -10 -87 2 -131 48 -41 43 -48 123
-15 172 44 65 131 85 193 44z"/>
<path d="M10764 13949 c-45 -10 -99 -28 -120 -42 -80 -49 -175 -96 -209 -103
-19 -3 -40 -13 -46 -20 -8 -10 -22 -13 -39 -9 -20 4 -29 2 -33 -9 -4 -9 -14
-16 -24 -16 -29 -1 -150 -56 -184 -84 -17 -14 -36 -26 -42 -26 -7 0 -43 -18
-81 -40 -37 -22 -74 -40 -80 -40 -18 0 -59 -47 -52 -58 7 -12 86 6 86 19 0 5
12 9 28 9 15 0 38 1 51 1 12 0 32 8 43 18 11 11 40 24 66 31 26 7 54 19 63 27
9 8 20 13 25 11 16 -4 153 67 154 80 0 6 6 12 14 12 8 0 18 9 21 20 3 11 15
20 25 20 11 0 23 8 28 17 8 13 25 17 90 17 49 0 79 3 75 9 -4 6 5 7 22 3 22
-6 26 -4 22 8 -4 9 -2 16 3 16 6 0 10 -4 10 -10 0 -5 9 -10 19 -10 11 0 23 5
26 10 3 6 11 10 16 10 6 0 3 -10 -5 -21 -8 -12 -12 -28 -9 -35 3 -8 0 -14 -6
-14 -6 0 -11 5 -11 10 0 15 -23 12 -46 -5 -18 -15 -18 -16 6 -13 19 2 24 -1
22 -14 -2 -10 2 -18 8 -18 14 0 13 -33 -2 -48 -9 -9 -9 -12 3 -12 12 0 12 -2
-1 -10 -9 -5 -19 -5 -26 1 -6 5 -25 6 -43 3 -28 -6 -31 -4 -31 17 -1 23 -1 23
-15 5 -12 -16 -12 -22 -2 -28 9 -6 9 -10 -3 -17 -8 -5 -18 -7 -22 -5 -4 3 -5
-2 -2 -11 5 -11 0 -18 -15 -22 -25 -6 -28 -23 -3 -23 15 -1 15 -2 -3 -16 -14
-11 -16 -18 -7 -21 6 -3 10 -8 7 -13 -3 -4 4 -6 15 -3 11 3 17 9 14 14 -3 5 6
4 20 -2 20 -9 29 -9 41 1 20 17 19 1 -1 -22 -16 -17 -18 -17 -30 0 -7 9 -16
14 -20 10 -4 -4 -1 -14 6 -23 10 -12 9 -15 -6 -17 -11 0 -26 -1 -35 0 -9 1
-16 -5 -16 -13 0 -8 4 -12 9 -9 5 3 21 -6 35 -20 14 -14 30 -23 35 -20 5 4 0
11 -13 18 -32 16 -33 31 -3 32 30 2 55 -43 32 -58 -10 -6 -9 -11 5 -19 25 -14
22 -65 -4 -79 -12 -7 -18 -18 -15 -26 7 -19 -4 -45 -16 -38 -6 4 -5 10 3 15 7
4 10 11 7 15 -4 3 -14 -1 -23 -9 -10 -10 -12 -18 -5 -22 8 -5 8 -11 0 -20 -8
-10 -7 -14 5 -17 14 -2 13 -8 -9 -33 -14 -16 -21 -31 -16 -33 6 -2 10 -8 10
-13 0 -4 -8 -6 -17 -3 -11 4 -14 3 -7 -3 20 -16 22 -39 3 -51 -10 -6 -21 -8
-24 -3 -3 5 0 11 7 13 6 2 8 10 4 17 -6 9 -13 7 -27 -8 -22 -24 -30 -26 -46
-10 -13 13 -36 2 -27 -12 3 -6 -4 -7 -20 -3 -17 4 -26 2 -26 -6 0 -6 4 -9 9
-5 5 3 13 1 16 -5 4 -6 15 -8 26 -5 13 4 19 2 19 -9 0 -19 21 -21 38 -4 10 10
15 10 22 -2 6 -10 5 -16 -3 -18 -19 -4 -39 -62 -22 -62 7 0 16 -7 19 -17 6
-15 8 -15 20 2 16 22 61 12 52 -12 -4 -11 -2 -13 9 -9 12 4 14 0 9 -19 -6 -24
-5 -25 21 -15 24 9 30 7 42 -10 13 -18 22 -20 76 -15 107 10 147 5 147 -20 0
-22 17 -18 23 5 4 16 0 20 -19 20 -27 0 -33 24 -9 34 9 3 15 0 15 -8 0 -12 20
-26 37 -26 3 0 2 12 -1 26 -6 23 -4 25 15 19 16 -6 20 -4 14 6 -5 8 1 5 13 -5
12 -11 22 -14 22 -8 0 7 9 12 20 12 11 0 20 5 20 10 0 7 8 7 23 -1 22 -12 22
-12 4 9 -20 22 -14 50 7 33 8 -7 15 -4 24 10 10 16 10 21 -4 26 -9 3 -20 0
-25 -8 -6 -11 -11 -11 -21 -1 -6 6 -22 12 -35 12 -13 0 -23 4 -23 9 0 13 34
24 38 12 5 -14 32 -14 32 0 0 6 8 8 19 4 11 -3 23 -1 27 6 5 8 -2 10 -25 7
-22 -3 -31 -1 -31 9 0 8 -9 23 -20 35 -24 26 -25 34 -4 42 8 3 12 2 9 -3 -3
-5 4 -12 15 -16 11 -3 20 -11 20 -16 0 -6 5 -7 11 -4 6 4 8 13 5 21 -3 8 -3
21 1 29 5 14 8 14 30 -1 24 -15 24 -15 15 2 -11 20 10 50 28 39 5 -3 10 -2 10
4 0 5 8 11 18 14 14 3 13 6 -8 16 -22 10 -22 11 -3 7 15 -3 27 3 37 19 13 20
13 24 -7 45 -21 22 -21 22 -2 15 11 -4 27 -9 35 -12 12 -5 13 -3 3 8 -17 17
-17 37 -1 21 18 -18 28 -15 21 6 -6 14 -4 15 9 4 24 -19 31 1 7 21 -24 21 -25
37 0 30 10 -3 22 0 25 6 5 7 -2 11 -17 11 -16 0 -26 7 -30 20 -3 11 -1 20 3
20 5 0 7 16 5 35 -2 19 1 35 5 35 5 0 8 15 7 33 -2 27 -6 33 -19 29 -10 -2
-20 3 -24 12 -9 23 1 30 25 16 14 -7 21 -7 21 0 0 5 -4 10 -8 10 -11 0 -7 42
7 68 6 12 16 20 22 17 5 -4 9 1 9 9 0 9 -9 16 -20 16 -11 0 -20 -4 -20 -10 0
-5 -7 -10 -15 -10 -23 0 22 41 48 45 12 1 31 6 42 11 19 7 19 7 2 -13 -14 -16
-15 -22 -5 -26 9 -3 22 14 38 49 16 34 31 54 42 54 25 0 99 -52 94 -67 -3 -7
-1 -15 4 -18 6 -4 10 0 10 8 0 8 7 17 15 21 9 3 15 0 15 -10 0 -8 4 -12 10 -9
11 7 69 -23 86 -44 6 -8 22 -16 35 -18 13 -2 28 -8 33 -13 6 -6 18 -10 28 -10
10 0 18 -4 18 -9 0 -4 19 -11 42 -14 24 -3 44 -11 46 -16 2 -6 8 -11 13 -11 5
0 23 -13 39 -30 16 -16 38 -30 50 -30 11 0 20 -5 20 -11 0 -5 4 -8 10 -4 5 3
28 -3 52 -14 24 -11 53 -22 66 -26 12 -3 22 -12 22 -18 0 -7 16 -13 38 -13 21
-1 50 -8 63 -17 13 -8 40 -18 59 -22 19 -4 44 -12 55 -18 11 -6 36 -12 55 -14
19 -2 39 -8 45 -14 5 -5 23 -9 40 -9 16 0 43 -7 59 -15 15 -8 39 -15 52 -15
12 0 25 -4 28 -9 3 -5 16 -9 28 -9 13 0 50 -4 83 -10 33 -6 67 -10 75 -10 8 0
50 -5 93 -11 43 -6 102 -11 130 -10 50 1 49 1 -48 25 -55 13 -129 33 -165 43
-36 11 -81 23 -101 26 -19 3 -53 14 -74 25 -22 11 -51 20 -66 20 -14 0 -52 9
-85 21 -32 11 -81 27 -109 36 -27 8 -68 23 -90 33 -22 10 -56 23 -75 31 -19 7
-42 18 -50 25 -8 7 -51 24 -95 38 -44 14 -89 32 -100 40 -11 9 -29 16 -41 16
-11 0 -26 11 -34 24 -9 18 -25 27 -54 31 -22 4 -66 22 -96 40 -30 18 -68 37
-85 41 -38 9 -172 71 -179 83 -3 5 -35 12 -72 16 -39 4 -85 17 -116 33 -106
55 -366 75 -524 41z m603 -176 c-9 -9 -20 -13 -24 -9 -4 4 -1 11 7 16 25 16
35 11 17 -7z m-717 -165 c0 -6 -6 -5 -15 2 -8 7 -15 14 -15 16 0 2 7 1 15 -2
8 -4 15 -11 15 -16z m-4 -50 c-9 -5 -21 -6 -28 -2 -8 5 -5 10 8 14 25 10 41 0
20 -12z m19 -127 c3 -5 1 -12 -5 -16 -5 -3 -10 1 -10 9 0 18 6 21 15 7z m570
-91 c3 -5 2 -10 -4 -10 -5 0 -13 5 -16 10 -3 6 -2 10 4 10 5 0 13 -4 16 -10z
m-639 -207 c-3 -7 0 -13 6 -13 6 0 9 -3 6 -6 -8 -7 -48 14 -48 24 0 4 9 8 20
8 13 0 19 -5 16 -13z m474 -1 c0 -5 -7 -9 -15 -9 -8 0 -12 4 -9 9 3 4 9 8 15
8 5 0 9 -4 9 -8z m-475 -112 c-3 -5 -10 -10 -16 -10 -5 0 -9 5 -9 10 0 6 7 10
16 10 8 0 12 -4 9 -10z m395 -46 c0 -3 -7 -12 -15 -21 -20 -19 -32 -10 -14 11
14 15 29 21 29 10z m40 -14 c0 -5 -5 -10 -11 -10 -5 0 -7 5 -4 10 3 6 8 10 11
10 2 0 4 -4 4 -10z m-30 -40 c0 -5 -5 -10 -11 -10 -5 0 -7 5 -4 10 3 6 8 10
11 10 2 0 4 -4 4 -10z m-283 -46 c2 -13 1 -15 -4 -4 -3 8 -11 19 -17 23 -7 6
-6 7 4 4 8 -2 16 -12 17 -23z"/>
<path d="M10610 13693 c0 -14 19 -38 25 -32 8 8 -5 39 -16 39 -5 0 -9 -3 -9
-7z"/>
<path d="M11432 13644 c10 -10 20 -16 22 -13 3 3 -5 11 -17 18 -21 13 -21 12
-5 -5z"/>
<path d="M9690 13482 c-14 -2 -37 -13 -52 -24 -31 -22 -38 -52 -10 -44 9 2 32
7 50 11 18 4 44 17 58 30 l24 23 -22 3 c-13 3 -34 3 -48 1z"/>
<path d="M9778 13473 c7 -3 16 -2 19 1 4 3 -2 6 -13 5 -11 0 -14 -3 -6 -6z"/>
<path d="M12628 13453 c-32 -8 -19 -22 34 -38 58 -17 128 -20 128 -5 0 5 -18
19 -40 30 -37 19 -82 24 -122 13z"/>
<path d="M10600 13341 c0 -10 19 -25 25 -20 1 2 -3 10 -11 17 -8 7 -14 8 -14
3z"/>
<path d="M12125 13040 c-3 -5 1 -10 10 -10 9 0 13 5 10 10 -3 6 -8 10 -10 10
-2 0 -7 -4 -10 -10z"/>
<path d="M11115 12950 c-3 -5 -1 -10 4 -10 6 0 11 5 11 10 0 6 -2 10 -4 10 -3
0 -8 -4 -11 -10z"/>
<path d="M11100 12889 c0 -5 5 -7 10 -4 6 3 10 8 10 11 0 2 -4 4 -10 4 -5 0
-10 -5 -10 -11z"/>
<path d="M10640 12808 c0 -17 2 -18 15 -8 8 7 15 14 15 15 0 2 -7 5 -15 9 -10
4 -15 -1 -15 -16z"/>
<path d="M10840 12812 c0 -12 19 -26 26 -19 2 2 -2 10 -11 17 -9 8 -15 8 -15
2z"/>
<path d="M9390 12790 c0 -5 5 -10 11 -10 5 0 7 5 4 10 -3 6 -8 10 -11 10 -2 0
-4 -4 -4 -10z"/>
<path d="M10888 12788 c20 -20 14 -24 -33 -24 -25 1 -45 4 -45 9 0 5 -7 1 -16
-7 -8 -9 -23 -16 -32 -16 -15 1 -15 2 1 14 17 13 16 14 -7 12 -15 0 -26 -5
-26 -11 0 -5 -4 -16 -9 -24 -8 -13 -12 -13 -26 -1 -14 12 -18 12 -25 0 -7 -11
-11 -11 -23 -1 -16 13 -91 5 -82 -8 6 -10 -75 -7 -99 4 -11 5 -26 4 -38 -4
-16 -10 -115 -17 -143 -10 -5 1 -18 -1 -27 -5 -9 -4 -25 -3 -36 3 -13 7 -23 7
-32 -2 -9 -9 -14 -9 -17 0 -3 7 -17 10 -36 7 -18 -3 -52 0 -77 6 -63 16 -103
20 -115 10 -6 -5 -33 -4 -60 1 -28 5 -64 7 -81 4 -18 -3 -47 1 -69 11 -24 10
-52 14 -73 10 -21 -3 -46 0 -62 9 -14 7 -35 12 -46 10 -10 -2 -22 -4 -26 -4
-10 -1 -10 -13 1 -30 5 -7 21 -14 37 -15 16 -2 38 -7 49 -13 20 -10 76 -26
105 -28 8 -1 22 -5 30 -8 25 -11 114 -26 123 -20 4 3 25 -3 45 -13 20 -10 42
-17 49 -16 6 1 14 -2 17 -7 10 -15 -88 -22 -209 -16 -216 11 -275 12 -275 4 0
-5 7 -9 15 -9 8 0 15 -4 15 -10 0 -5 7 -10 15 -10 20 0 105 -61 105 -76 0 -6
14 -17 30 -24 17 -7 30 -16 30 -21 0 -13 -14 -11 -46 6 -32 16 -64 20 -64 6 0
-22 310 -147 450 -181 96 -24 330 -60 484 -76 336 -34 968 6 1131 72 17 6 57
15 90 18 61 7 121 23 141 38 6 5 19 6 28 2 9 -3 27 1 41 10 14 9 37 15 53 14
15 -1 34 2 42 7 8 5 20 10 27 11 17 3 94 66 88 72 -3 3 -15 -4 -28 -15 -21
-20 -51 -24 -73 -10 -6 3 -14 3 -18 0 -12 -12 -40 -12 -48 0 -6 9 -8 9 -8 0 0
-7 -5 -13 -11 -13 -8 0 -7 5 1 15 7 9 19 14 26 11 7 -3 14 -2 16 2 6 13 72 40
138 57 36 9 74 20 85 25 11 5 33 11 49 12 16 2 32 9 34 17 3 9 0 12 -10 8 -9
-3 -21 0 -27 6 -8 8 -16 5 -29 -11 -17 -20 -20 -20 -35 -5 -14 15 -20 15 -43
3 -14 -8 -46 -13 -71 -12 -25 1 -51 -2 -57 -5 -10 -7 -36 -10 -101 -13 -11 0
-31 2 -43 5 -16 4 -21 2 -17 -6 9 -13 -68 -3 -99 13 -13 7 -21 6 -26 -2 -6
-10 -14 -7 -31 9 -26 24 -35 26 -45 10 -3 -6 -19 -8 -38 -5 -17 3 -42 8 -55
11 -14 2 -27 9 -30 14 -8 12 -59 7 -73 -7 -12 -12 -47 3 -61 26 -5 7 -12 10
-17 7 -5 -3 -11 -1 -14 4 -4 5 -2 12 3 16 6 3 7 13 4 23 -6 15 -5 15 11 3 11
-10 20 -11 24 -5 4 6 16 16 27 22 l20 11 -20 1 c-11 0 -41 0 -67 0 -36 0 -48
4 -48 15 0 8 -4 15 -10 15 -5 0 -7 7 -4 15 5 12 -3 15 -36 15 -31 0 -41 -3
-37 -13 4 -10 -2 -13 -19 -9 -13 2 -21 9 -18 14 4 5 -8 8 -27 6 -21 -2 -33 -8
-31 -15 1 -7 -4 -13 -12 -13 -8 0 -23 -3 -33 -6 -10 -3 -8 1 6 9 23 14 23 15
5 24 -10 6 -27 7 -38 4 -29 -11 -75 -1 -78 17 -3 14 -5 14 -20 -1 -19 -19 -38
-22 -38 -6 0 8 -5 8 -15 -1 -10 -9 -15 -9 -15 -1 0 6 -7 11 -16 11 -10 0 -14
-6 -10 -15 3 -8 2 -15 -3 -15 -5 0 -11 14 -14 30 -4 17 -12 30 -19 30 -9 0 -9
-3 0 -12z m-133 -58 c3 -5 1 -10 -4 -10 -6 0 -11 5 -11 10 0 6 2 10 4 10 3 0
8 -4 11 -10z m278 4 c8 -8 -3 -34 -15 -34 -5 0 -6 5 -3 10 3 6 1 10 -4 10 -6
0 -11 5 -11 10 0 11 23 14 33 4z m-1318 -14 c3 -5 1 -10 -4 -10 -6 0 -11 5
-11 10 0 6 2 10 4 10 3 0 8 -4 11 -10z m2285 -231 c0 -5 -7 -9 -15 -9 -15 0
-20 12 -9 23 8 8 24 -1 24 -14z"/>
<path d="M12695 12740 c-3 -5 -1 -10 4 -10 6 0 11 5 11 10 0 6 -2 10 -4 10 -3
0 -8 -4 -11 -10z"/>
<path d="M11440 12725 c0 -9 6 -12 15 -9 8 4 15 10 15 15 0 5 -7 9 -15 9 -8 0
-15 -7 -15 -15z"/>
<path d="M9275 6260 c28 -12 37 -12 30 0 -3 6 -16 10 -28 9 -21 0 -21 -1 -2
-9z"/>
<path d="M9609 6166 c9 -11 17 -13 21 -6 10 17 40 1 33 -18 -5 -11 -2 -14 10
-9 9 4 24 10 32 13 10 4 15 0 15 -10 0 -9 8 -16 19 -16 11 0 23 -4 26 -10 3
-5 16 -9 28 -9 12 1 38 -1 57 -5 37 -6 67 5 57 21 -3 5 -30 14 -59 20 -131 27
-176 36 -213 41 -36 4 -38 3 -26 -12z"/>
<path d="M9980 6090 c0 -5 11 -10 25 -10 14 0 25 -4 25 -8 0 -5 14 -8 32 -7
20 1 40 -5 52 -16 19 -18 55 -24 121 -22 16 1 32 -3 36 -8 3 -5 30 -11 59 -13
30 -2 56 -8 58 -14 2 -6 16 -7 36 -2 18 4 41 3 50 -2 10 -6 20 -7 23 -4 4 3
12 1 19 -5 8 -6 21 -9 30 -5 8 3 25 1 37 -6 12 -6 29 -13 37 -14 108 -20 138
-27 157 -36 17 -8 26 -8 37 1 10 8 16 9 21 1 3 -5 22 -10 41 -10 19 0 34 -5
34 -11 0 -8 4 -8 14 0 11 10 20 10 36 1 12 -7 34 -9 49 -5 46 11 101 13 107 4
3 -5 16 -6 29 -3 13 3 37 -2 55 -11 19 -10 47 -15 66 -13 19 2 34 0 34 -5 0
-5 9 -7 20 -4 11 3 20 2 20 -1 0 -4 14 -8 30 -9 17 -1 30 2 30 8 0 10 48 2 66
-12 13 -10 107 -15 121 -6 6 4 29 0 52 -8 25 -8 43 -10 46 -4 4 5 10 7 14 5 4
-3 43 -6 87 -8 43 -2 82 -7 85 -11 3 -4 18 -3 33 3 28 10 71 5 93 -12 7 -5 14
-5 17 1 4 6 30 10 59 10 118 0 305 9 316 15 6 4 11 0 11 -9 0 -14 2 -15 21 -1
12 8 28 12 35 9 8 -3 14 1 14 8 0 10 3 10 8 3 10 -16 60 -23 95 -13 20 6 35 5
44 -3 10 -8 20 -8 38 2 13 7 54 13 92 14 37 0 73 4 78 7 6 3 22 9 38 13 74 18
-2 23 -320 25 -301 1 -909 21 -1071 36 -28 2 -98 7 -155 10 -56 3 -133 10
-172 15 -59 8 -158 19 -325 35 -19 2 -53 6 -75 9 -22 3 -76 10 -120 15 -44 5
-152 21 -240 35 -150 24 -236 35 -312 40 -18 1 -36 5 -39 9 -11 11 -54 8 -54
-3z m360 -64 c0 -3 -4 -8 -10 -11 -5 -3 -10 -1 -10 4 0 6 5 11 10 11 6 0 10
-2 10 -4z"/>
<path d="M10630 5930 c0 -5 5 -10 10 -10 6 0 10 5 10 10 0 6 -4 10 -10 10 -5
0 -10 -4 -10 -10z"/>
<path d="M12965 5890 c-3 -6 -17 -7 -31 -4 -13 3 -24 2 -24 -4 0 -14 30 -23
53 -16 13 4 17 2 13 -5 -10 -15 3 -14 19 3 10 10 11 16 2 25 -14 14 -24 14
-32 1z"/>
<path d="M13020 5880 c0 -5 10 -10 23 -10 18 0 19 2 7 10 -19 13 -30 13 -30 0z"/>
</g>
</svg>
