<svg version="1.1" id="Layer_1" xmlns="http://www.w3.org/2000/svg" xmlns:xlink="http://www.w3.org/1999/xlink" x="0px" y="0px"
	 width="100%" viewBox="0 0 1024 1024" enable-background="new 0 0 1024 1024" xml:space="preserve">
<path fill="#000000" opacity="1.000000" stroke="none" 
	d="
M376.739166,885.429932 
	C332.243225,875.592529 290.328583,860.491760 253.103348,834.291443 
	C212.703888,805.857056 184.757462,768.434082 172.465515,720.127686 
	C167.055283,698.865845 165.533798,677.307739 167.473938,655.348206 
	C169.993286,626.832825 176.982513,599.717346 190.277542,574.340393 
	C201.609604,552.710205 217.035065,534.225159 234.728577,517.544128 
	C235.793777,516.539856 236.874115,515.551636 238.362137,514.171204 
	C228.334213,512.816284 218.751801,512.078674 209.509171,509.361816 
	C199.759918,506.496063 190.889923,502.049194 183.756271,494.699371 
	C174.213913,484.867828 172.638504,473.218292 176.457642,460.467529 
	C178.081131,455.047333 180.675186,450.029694 183.277176,444.532349 
	C175.350800,440.272583 167.496414,436.292847 160.353180,431.144135 
	C146.309402,421.021545 134.655823,409.008270 128.816254,392.196381 
	C121.683830,371.662384 132.158264,353.473236 153.553101,349.673981 
	C164.631592,347.706665 175.987000,347.539459 186.877686,349.370911 
	C199.995773,351.576996 209.436432,346.404297 218.331116,338.248047 
	C220.187210,336.546021 220.497696,334.288452 220.673737,331.886200 
	C223.321884,295.747925 231.389938,261.136719 251.359589,230.332657 
	C283.017426,181.499115 326.798676,149.966003 384.410553,138.571838 
	C402.426544,135.008728 420.593781,133.101730 438.928955,133.747086 
	C486.958008,135.437607 531.601685,147.899780 570.267151,177.450302 
	C602.868103,202.366013 623.831970,235.428101 635.167236,274.670685 
	C641.724426,297.371765 644.276855,320.646545 643.140503,344.205902 
	C641.390015,380.498657 631.401428,414.546265 614.013123,446.440826 
	C613.247009,447.845947 611.919495,449.079651 612.166138,451.027893 
	C616.675415,452.916962 621.585938,453.079712 626.254944,453.372070 
	C652.716125,455.029022 679.079895,455.164581 704.745605,446.728119 
	C722.028137,441.047302 736.528931,430.883911 750.406067,419.553650 
	C760.085876,411.650360 769.860718,403.873749 781.082031,398.154694 
	C811.974060,382.410187 842.529480,391.267761 859.800720,421.463715 
	C872.320618,443.352692 879.094238,467.385254 884.303467,491.854065 
	C889.325928,515.445374 891.697632,539.329651 892.510559,563.472229 
	C894.491150,622.294189 884.848572,678.834229 859.311584,732.033203 
	C828.303955,796.628479 779.422607,842.703796 712.939880,869.890198 
	C684.621521,881.470276 655.168762,888.710144 625.011841,893.390991 
	C595.380066,897.990356 565.586914,900.021790 535.597656,900.559998 
	C510.256134,901.014709 484.990814,900.308777 459.783173,898.211670 
	C431.972321,895.897888 404.381531,891.795654 376.739166,885.429932 
M584.965576,235.470795 
	C576.735352,222.597809 566.875610,211.117950 554.934937,201.585281 
	C524.892517,177.601242 489.865601,166.537521 452.151123,163.551147 
	C432.063751,161.960541 411.914612,162.922272 392.075592,167.347687 
	C359.655701,174.579468 329.934235,187.398788 305.596222,210.527100 
	C273.707031,240.831238 255.343201,277.913055 251.614166,321.985840 
	C251.357590,325.018402 252.211624,325.780060 255.258438,325.253815 
	C261.681763,324.144470 268.222778,324.091309 274.628143,325.225281 
	C289.517242,327.861267 300.725372,336.368134 309.825195,348.043488 
	C321.941498,363.589050 334.777863,378.426361 351.146942,389.757690 
	C357.168640,393.926117 363.591980,397.576019 368.931122,402.642120 
	C387.060760,419.844757 391.987610,442.404785 376.306274,463.438202 
	C372.000580,469.213440 367.110535,474.455566 361.565308,479.013519 
	C341.048065,495.877869 317.220978,505.754761 291.514557,511.283997 
	C284.311157,512.833374 278.195404,515.618408 272.510925,520.326843 
	C259.515289,531.091248 247.266312,542.589417 236.550613,555.609680 
	C219.411179,576.435242 206.521530,599.619019 199.847961,625.878845 
	C195.030106,644.836670 193.440125,664.113708 195.105377,683.725769 
	C196.220352,696.857300 197.682877,709.862366 202.010864,722.329651 
	C212.127151,751.470886 229.584335,775.802185 252.199661,796.426270 
	C277.965332,819.923340 308.291687,835.743530 341.113251,846.789856 
	C393.840485,864.535522 448.430206,871.658752 503.756592,873.523376 
	C534.031982,874.543762 564.281982,873.219604 594.447998,869.800964 
	C619.740906,866.934570 644.732239,862.674561 669.147583,855.531006 
	C726.578308,838.727661 775.294189,809.118896 810.328064,759.265442 
	C843.507019,712.051697 860.023132,659.203308 863.424316,602.121521 
	C864.549927,583.230347 863.951477,564.198181 862.881287,545.203125 
	C861.442566,519.666931 857.492126,494.688812 849.594910,470.384399 
	C844.915344,455.982605 840.196289,441.520233 830.738831,429.305634 
	C825.678467,422.769928 819.175964,419.152527 810.581238,419.217041 
	C799.002197,419.303894 789.931885,424.872528 781.324097,431.658539 
	C768.907410,441.447418 757.165344,452.135162 743.473083,460.222260 
	C717.388489,475.628540 688.587769,480.923859 658.890076,482.117767 
	C637.919983,482.960785 617.036072,480.999146 596.313171,477.664795 
	C593.906006,477.277466 592.183472,477.703125 590.507812,479.447144 
	C586.814514,483.291107 583.150574,487.189697 579.178406,490.733887 
	C570.715759,498.284729 562.054565,505.672333 551.140198,509.522156 
	C541.129517,513.053284 532.641479,506.597382 532.547424,496.096771 
	C532.481323,488.729431 537.839844,485.673126 542.636780,482.298004 
	C558.934509,470.830872 572.370667,456.566956 583.439331,440.164764 
	C607.685669,404.235077 617.765137,364.627869 613.793152,321.351562 
	C610.974121,290.637939 601.759583,262.193817 584.965576,235.470795 
M170.105301,376.741089 
	C157.903275,378.719910 156.209259,382.949646 163.498566,393.235016 
	C166.896332,398.029327 170.995880,402.166443 175.633072,405.732849 
	C204.113235,427.636566 237.105850,436.538116 272.274658,438.558746 
	C293.099976,439.755280 313.722717,436.778595 334.207611,433.383850 
	C340.606995,432.323334 347.323395,431.943176 353.688507,428.856476 
	C351.689667,424.940247 348.827362,422.467255 345.645111,420.349731 
	C339.688843,416.386383 333.374878,412.898438 327.734863,408.534088 
	C312.657379,396.866943 298.964172,383.960876 289.419067,366.993195 
	C282.202576,354.164917 268.267609,350.195435 254.384094,355.762787 
	C248.771103,358.013611 243.891205,361.510345 238.830704,364.710358 
	C225.568909,373.096466 211.138672,377.551819 195.391876,377.321503 
	C187.246964,377.202393 179.105682,376.836090 170.105301,376.741089 
M297.355255,479.718658 
	C312.517181,473.905701 327.763275,468.271393 342.396698,458.785522 
	C332.338867,460.515961 323.380249,462.043732 314.426605,463.600128 
	C283.171112,469.033295 252.271545,467.751495 221.773178,458.739502 
	C212.232697,455.920380 212.211761,455.942535 206.305252,464.100433 
	C205.817383,464.774231 205.394760,465.496552 204.889359,466.156128 
	C203.088745,468.506226 203.380157,470.615173 205.246124,472.871429 
	C209.943878,478.551727 215.711746,482.483124 222.801117,484.610291 
	C231.577545,487.243683 240.590607,486.749115 249.536972,486.760895 
	C265.535767,486.781921 281.351288,485.220459 297.355255,479.718658 
z"/>
<path fill="#000000" opacity="1.000000" stroke="none" 
	d="
M777.694946,682.671875 
	C776.611145,683.965637 775.880554,685.135559 774.877014,685.981750 
	C769.084656,690.866333 766.947510,696.626648 767.019531,704.563049 
	C767.124207,716.092712 760.091064,725.218079 752.541870,733.353455 
	C730.228699,757.398926 702.293518,771.858398 670.960022,780.310242 
	C652.342529,785.332153 633.339111,787.489563 614.139038,786.250305 
	C579.370178,784.006287 547.352783,773.998108 521.304382,749.723328 
	C500.819336,730.633118 489.334198,707.001465 488.682190,678.681702 
	C487.684753,635.357300 508.104706,603.576355 543.071167,580.267700 
	C565.405273,565.379761 590.380188,558.187500 617.241638,556.467102 
	C636.856567,555.210815 656.046326,557.533569 675.274414,560.404419 
	C706.369873,565.047119 736.588806,562.483948 765.700562,549.961914 
	C772.239197,547.149414 778.720032,544.435425 786.283142,545.228577 
	C802.880615,546.969177 811.646484,560.149841 814.301025,573.622559 
	C817.317932,588.934326 813.866394,603.730103 810.308105,618.423889 
	C804.538940,642.247009 794.286621,663.893555 777.694946,682.671875 
M544.366577,613.858215 
	C539.812866,618.270996 535.607849,622.995911 531.916748,628.151428 
	C519.375854,645.668213 513.505737,665.109863 516.987732,686.525391 
	C521.446045,713.945190 538.097351,732.653870 561.946594,745.361206 
	C586.359131,758.368591 612.552856,761.768250 639.839844,758.801453 
	C669.541504,755.572205 696.114563,744.709473 719.772156,726.605164 
	C723.525879,723.732544 727.438477,720.912476 730.445190,716.746094 
	C729.450195,716.136536 728.943115,715.726929 728.365662,715.486938 
	C718.152649,711.241760 716.537109,702.001404 724.801331,694.834106 
	C728.449829,691.669800 732.323181,688.752197 735.843811,685.454956 
	C759.587341,663.218384 778.828308,638.184143 785.182373,605.239441 
	C786.847473,596.606079 788.816772,588.052917 786.758240,579.118469 
	C785.799805,574.958984 784.085754,573.858459 780.194885,575.390442 
	C775.708923,577.156860 771.158813,578.771729 766.589844,580.313965 
	C743.135132,588.231140 719.059326,590.941895 694.365906,589.444519 
	C681.914978,588.689514 669.538635,587.433411 657.195496,585.791443 
	C641.496948,583.703186 625.779724,582.357056 610.001343,584.512634 
	C585.536865,587.854980 563.442017,596.672058 544.366577,613.858215 
z"/>
<path fill="#000000" opacity="1.000000" stroke="none" 
	d="
M453.646912,310.563354 
	C461.511108,326.976044 461.051422,342.766693 451.376923,357.814728 
	C437.548462,379.323975 406.154602,380.593140 390.384552,360.503723 
	C371.515717,336.466797 382.573792,299.153320 410.887878,291.318970 
	C427.329651,286.769592 444.841125,294.552338 453.646912,310.563354 
z"/>
</svg>